<svg width="24" height="18" viewBox="0 0 24 18" fill="none" xmlns="http://www.w3.org/2000/svg">
<path d="M12.0782 0.125C12.0867 0.125018 12.0959 0.12504 12.1058 0.125064L12.212 0.125398C13.4447 0.129964 19.6924 0.175628 21.3768 0.632261C22.4095 0.911535 23.2226 1.73456 23.4986 2.77929C23.6506 3.35327 23.7565 4.11617 23.8303 4.90078L23.8446 5.05794C23.8562 5.18907 23.8669 5.32049 23.8769 5.45143L23.8884 5.60828C23.987 6.99085 23.9985 8.28464 23.9998 8.56771L24 8.60589C24 8.60902 24 8.61413 24 8.61413V8.63557C24 8.63557 24 8.64068 24 8.6438L23.9998 8.68199C23.9984 8.97575 23.9861 10.358 23.8769 11.7984L23.8646 11.9557L23.8515 12.1131C23.7772 12.9791 23.6657 13.8391 23.4986 14.4704C23.2226 15.5151 22.4095 16.3384 21.3768 16.6174C19.6362 17.0895 13.0231 17.1225 12.1058 17.1248L12.0352 17.125C12.0294 17.125 12.0243 17.125 12.0199 17.125L11.9911 17.125C11.9911 17.125 11.9845 17.125 11.9801 17.125L11.8942 17.1248C11.4306 17.1237 9.51231 17.1146 7.50341 17.0451L7.24657 17.0359C7.20371 17.0343 7.16084 17.0327 7.11797 17.031L6.86083 17.0208L6.60429 17.0098C4.94003 16.9361 3.35325 16.8154 2.6233 16.6174C1.59067 16.3384 0.777522 15.5151 0.501534 14.4704C0.334334 13.8391 0.222868 12.9791 0.148557 12.1131L0.135451 11.9557L0.12314 11.7984C0.0178199 10.4104 0.00253152 9.07636 0.000312239 8.71831L4.70427e-05 8.66705C2.84324e-05 8.66244 1.29238e-05 8.65819 0 8.65431V8.59538C1.29238e-05 8.59151 2.84324e-05 8.58726 4.70427e-05 8.58264L0.000312239 8.53139C0.00232215 8.20714 0.0150516 7.0824 0.0956714 5.84203L0.106107 5.68643C0.107906 5.66042 0.109736 5.63436 0.111597 5.60828L0.12314 5.45143C0.133075 5.32049 0.143813 5.18907 0.155416 5.05794L0.169759 4.90078C0.243595 4.11617 0.349534 3.35327 0.501534 2.77929C0.777522 1.73456 1.59067 0.911535 2.6233 0.632261C3.35325 0.434386 4.94003 0.313683 6.60429 0.240054L6.86083 0.229094L7.11797 0.218852C7.16084 0.217203 7.20371 0.215584 7.24657 0.213993L7.50341 0.204783C9.38409 0.139685 11.1853 0.12763 11.788 0.125398L11.8942 0.125064C11.904 0.12504 11.9132 0.125018 11.9218 0.125H12.0782ZM9.60005 4.98189V12.2678L15.8352 8.62505L9.60005 4.98189Z" fill="#E91D24"/>
</svg>
