<svg width="23" height="24" viewBox="0 0 23 24" fill="none" xmlns="http://www.w3.org/2000/svg">
<path d="M11.7509 0.541504C8.7635 0.541504 8.38858 0.554863 7.21525 0.609473C6.04421 0.664317 5.24487 0.853926 4.54546 1.13213C3.82198 1.41947 3.20827 1.80385 2.59685 2.42939C1.98498 3.05471 1.60915 3.68236 1.32727 4.42205C1.05456 5.1376 0.868937 5.95533 0.816229 7.15252C0.76375 8.35252 0.75 8.73619 0.75 11.7915C0.75 14.8468 0.763292 15.2291 0.816459 16.4291C0.870313 17.6267 1.05571 18.4442 1.3275 19.1595C1.60869 19.8995 1.98452 20.5271 2.59617 21.1524C3.20735 21.7782 3.82106 22.1635 4.54408 22.4509C5.24396 22.7291 6.04352 22.9187 7.21433 22.9735C8.38767 23.0281 8.76235 23.0415 11.7495 23.0415C14.7372 23.0415 15.111 23.0281 16.2843 22.9735C17.4553 22.9187 18.2556 22.7291 18.9555 22.4509C19.6787 22.1635 20.2915 21.7782 20.9027 21.1524C21.5146 20.5271 21.8904 19.8995 22.1723 19.1598C22.4427 18.4442 22.6283 17.6265 22.6833 16.4293C22.736 15.2293 22.7498 14.8468 22.7498 11.7915C22.7498 8.73619 22.736 8.35275 22.6833 7.15275C22.6283 5.9551 22.4427 5.1376 22.1723 4.42228C21.8904 3.68236 21.5146 3.05471 20.9027 2.42939C20.2908 1.80361 19.6789 1.41924 18.9548 1.13213C18.2535 0.853926 17.4537 0.664317 16.2827 0.609473C15.1094 0.554863 14.7358 0.541504 11.7475 0.541504H11.7509ZM10.7641 2.56885C11.057 2.56838 11.3838 2.56885 11.7509 2.56885C14.6879 2.56885 15.036 2.57963 16.1958 2.63354C17.2683 2.68369 17.8504 2.86697 18.2382 3.02096C18.7515 3.22486 19.1175 3.46861 19.5023 3.86236C19.8873 4.25611 20.1256 4.63111 20.3254 5.15611C20.476 5.55221 20.6554 6.14752 20.7042 7.24439C20.7569 8.43033 20.7684 8.78658 20.7684 11.7889C20.7684 14.7913 20.7569 15.1475 20.7042 16.3335C20.6552 17.4303 20.476 18.0256 20.3254 18.4217C20.126 18.9467 19.8873 19.3206 19.5023 19.7141C19.1173 20.1078 18.7517 20.3516 18.2382 20.5555C17.8509 20.7102 17.2683 20.893 16.1958 20.9431C15.0363 20.997 14.6879 21.0088 11.7509 21.0088C8.81369 21.0088 8.46558 20.997 7.306 20.9431C6.2335 20.8925 5.65142 20.7092 5.26344 20.5553C4.7501 20.3513 4.38344 20.1076 3.99844 19.7138C3.61344 19.3201 3.3751 18.946 3.17527 18.4208C3.02471 18.0247 2.84527 17.4294 2.79646 16.3325C2.74375 15.1466 2.73321 14.7903 2.73321 11.7861C2.73321 8.78189 2.74375 8.42752 2.79646 7.24158C2.8455 6.14471 3.02471 5.54939 3.17527 5.15283C3.37465 4.62783 3.61344 4.25283 3.99844 3.85908C4.38344 3.46533 4.7501 3.22158 5.26344 3.01721C5.65119 2.86252 6.2335 2.67971 7.306 2.62932C8.32075 2.58244 8.714 2.56838 10.7641 2.56604V2.56885ZM17.6226 4.43682C16.8939 4.43682 16.3026 5.0408 16.3026 5.78635C16.3026 6.53166 16.8939 7.13635 17.6226 7.13635C18.3514 7.13635 18.9426 6.53166 18.9426 5.78635C18.9426 5.04103 18.3514 4.43635 17.6226 4.43635V4.43682ZM11.7509 6.01416C8.63127 6.01416 6.10196 8.60096 6.10196 11.7915C6.10196 14.9821 8.63127 17.5677 11.7509 17.5677C14.8706 17.5677 17.399 14.9821 17.399 11.7915C17.399 8.60096 14.8703 6.01416 11.7507 6.01416H11.7509ZM11.7509 8.0415C13.7758 8.0415 15.4176 9.72033 15.4176 11.7915C15.4176 13.8624 13.7758 15.5415 11.7509 15.5415C9.72577 15.5415 8.08425 13.8624 8.08425 11.7915C8.08425 9.72033 9.72577 8.0415 11.7509 8.0415Z" fill="#E91D24"/>
</svg>
