<svg width="23" height="24" viewBox="0 0 23 24" fill="none" xmlns="http://www.w3.org/2000/svg">
<path fill-rule="evenodd" clip-rule="evenodd" d="M1.40625 4.96875C1.40625 3.41545 2.66545 2.15625 4.21875 2.15625H5.50465C6.31125 2.15625 7.01435 2.70521 7.20998 3.48773L8.24666 7.63447C8.41819 8.32059 8.16182 9.0427 7.59602 9.46705L6.38325 10.3766C6.25732 10.4711 6.22994 10.6094 6.26531 10.706C7.32985 13.612 9.63798 15.9201 12.544 16.9847C12.6406 17.0201 12.7789 16.9927 12.8734 16.8667L13.783 15.654C14.2073 15.0882 14.9294 14.8318 15.6155 15.0033L19.7623 16.04C20.5448 16.2357 21.0938 16.9387 21.0938 17.7454V19.0312C21.0938 20.5846 19.8346 21.8438 18.2812 21.8438H16.1719C8.01705 21.8438 1.40625 15.233 1.40625 7.07812V4.96875Z" fill="#E91D24"/>
</svg>
