<svg width="24" height="23" viewBox="0 0 24 23" fill="none" xmlns="http://www.w3.org/2000/svg">
<g clip-path="url(#clip0_1308_32748)">
<path d="M23.25 11.375C23.25 5.16179 18.2132 0.125 12 0.125C5.78679 0.125 0.75 5.16179 0.75 11.375C0.75 16.9901 4.86394 21.6444 10.2422 22.4883V14.627H7.38574V11.375H10.2422V8.89648C10.2422 6.07695 11.9218 4.51953 14.4915 4.51953C15.7219 4.51953 17.0098 4.73926 17.0098 4.73926V7.50781H15.5912C14.1938 7.50781 13.7578 8.37507 13.7578 9.26562V11.375H16.8779L16.3791 14.627H13.7578V22.4883C19.1361 21.6444 23.25 16.9901 23.25 11.375Z" fill="#E91D24"/>
</g>
<defs>
<clipPath id="clip0_1308_32748">
<rect width="22.5" height="22.5" fill="white" transform="translate(0.75 0.125)"/>
</clipPath>
</defs>
</svg>
