<svg width="24" height="24" viewBox="0 0 24 24" fill="none" xmlns="http://www.w3.org/2000/svg">
<g clip-path="url(#clip0_1308_32754)">
<path d="M21.5845 0.958496H2.41113C1.49268 0.958496 0.75 1.68359 0.75 2.58008V21.8325C0.75 22.729 1.49268 23.4585 2.41113 23.4585H21.5845C22.5029 23.4585 23.25 22.729 23.25 21.8369V2.58008C23.25 1.68359 22.5029 0.958496 21.5845 0.958496ZM7.42529 20.1318H4.08545V9.3916H7.42529V20.1318ZM5.75537 7.92822C4.68311 7.92822 3.81738 7.0625 3.81738 5.99463C3.81738 4.92676 4.68311 4.06103 5.75537 4.06103C6.82324 4.06103 7.68896 4.92676 7.68896 5.99463C7.68896 7.05811 6.82324 7.92822 5.75537 7.92822ZM19.9233 20.1318H16.5879V14.9111C16.5879 13.6675 16.5659 12.0635 14.852 12.0635C13.1162 12.0635 12.8525 13.4214 12.8525 14.8232V20.1318H9.52149V9.3916H12.7207V10.8594H12.7646C13.2085 10.0156 14.2983 9.12354 15.9199 9.12354C19.2993 9.12354 19.9233 11.3472 19.9233 14.2388V20.1318Z" fill="#E91D24"/>
</g>
<defs>
<clipPath id="clip0_1308_32754">
<rect width="22.5" height="22.5" fill="white" transform="translate(0.75 0.958496)"/>
</clipPath>
</defs>
</svg>
