<svg width="23" height="24" viewBox="0 0 23 24" fill="none" xmlns="http://www.w3.org/2000/svg">
<path fill-rule="evenodd" clip-rule="evenodd" d="M10.8185 21.7041C10.8468 21.7205 10.8691 21.7332 10.8848 21.742L10.911 21.7566C11.12 21.8714 11.3791 21.8705 11.5883 21.757L11.6152 21.742C11.6309 21.7332 11.6532 21.7205 11.6815 21.7041C11.7381 21.6713 11.819 21.6234 11.9208 21.5608C12.1242 21.4356 12.4113 21.2508 12.7543 21.0085C13.4391 20.5248 14.3529 19.807 15.2686 18.8694C17.0913 17.0033 18.9844 14.1995 18.9844 10.5937C18.9844 6.32217 15.5216 2.85938 11.25 2.85938C6.97842 2.85938 3.51562 6.32217 3.51562 10.5937C3.51562 14.1995 5.40874 17.0033 7.23136 18.8694C8.14711 19.807 9.06085 20.5248 9.74568 21.0085C10.0887 21.2508 10.3758 21.4356 10.5792 21.5608C10.681 21.6234 10.7619 21.6713 10.8185 21.7041ZM11.25 13.4062C12.8033 13.4062 14.0625 12.1471 14.0625 10.5938C14.0625 9.04045 12.8033 7.78125 11.25 7.78125C9.6967 7.78125 8.4375 9.04045 8.4375 10.5938C8.4375 12.1471 9.6967 13.4062 11.25 13.4062Z" fill="#E91D24"/>
</svg>
