<svg width="22" height="23" viewBox="0 0 22 23" fill="none" xmlns="http://www.w3.org/2000/svg">
<path d="M11.0009 0.125C8.0135 0.125 7.63858 0.13836 6.46525 0.192969C5.29421 0.247813 4.49487 0.437422 3.79546 0.715625C3.07198 1.00297 2.45827 1.38734 1.84685 2.01289C1.23498 2.6382 0.859146 3.26586 0.577271 4.00555C0.304562 4.72109 0.118937 5.53883 0.0662291 6.73602C0.0137499 7.93602 0 8.31969 0 11.375C0 14.4303 0.0132919 14.8126 0.0664585 16.0126C0.120313 17.2102 0.305708 18.0277 0.5775 18.743C0.858688 19.483 1.23452 20.1106 1.84617 20.7359C2.45735 21.3617 3.07106 21.747 3.79408 22.0344C4.49396 22.3126 5.29352 22.5022 6.46433 22.557C7.63767 22.6116 8.01235 22.625 10.9995 22.625C13.9872 22.625 14.361 22.6116 15.5343 22.557C16.7053 22.5022 17.5056 22.3126 18.2055 22.0344C18.9287 21.747 19.5415 21.3617 20.1527 20.7359C20.7646 20.1106 21.1404 19.483 21.4223 18.7433C21.6927 18.0277 21.8783 17.21 21.9333 16.0128C21.986 14.8128 21.9998 14.4303 21.9998 11.375C21.9998 8.31969 21.986 7.93625 21.9333 6.73625C21.8783 5.53859 21.6927 4.72109 21.4223 4.00578C21.1404 3.26586 20.7646 2.6382 20.1527 2.01289C19.5408 1.38711 18.9289 1.00273 18.2048 0.715625C17.5035 0.437422 16.7037 0.247813 15.5327 0.192969C14.3594 0.13836 13.9858 0.125 10.9975 0.125H11.0009ZM10.0141 2.15234C10.307 2.15188 10.6338 2.15234 11.0009 2.15234C13.9379 2.15234 14.286 2.16313 15.4458 2.21703C16.5183 2.26719 17.1004 2.45047 17.4882 2.60445C18.0015 2.80836 18.3675 3.05211 18.7523 3.44586C19.1373 3.83961 19.3756 4.21461 19.5754 4.73961C19.726 5.1357 19.9054 5.73102 19.9542 6.82789C20.0069 8.01383 20.0184 8.37008 20.0184 11.3724C20.0184 14.3748 20.0069 14.731 19.9542 15.917C19.9052 17.0138 19.726 17.6091 19.5754 18.0052C19.376 18.5302 19.1373 18.9041 18.7523 19.2976C18.3673 19.6913 18.0017 19.9351 17.4882 20.139C17.1009 20.2937 16.5183 20.4765 15.4458 20.5266C14.2863 20.5805 13.9379 20.5923 11.0009 20.5923C8.06369 20.5923 7.71558 20.5805 6.556 20.5266C5.4835 20.476 4.90142 20.2927 4.51344 20.1388C4.0001 19.9348 3.63344 19.6911 3.24844 19.2973C2.86344 18.9036 2.6251 18.5295 2.42527 18.0043C2.27471 17.6082 2.09527 17.0129 2.04646 15.916C1.99375 14.7301 1.98321 14.3738 1.98321 11.3696C1.98321 8.36539 1.99375 8.01102 2.04646 6.82508C2.0955 5.7282 2.27471 5.13289 2.42527 4.73633C2.62465 4.21133 2.86344 3.83633 3.24844 3.44258C3.63344 3.04883 4.0001 2.80508 4.51344 2.6007C4.90119 2.44602 5.4835 2.2632 6.556 2.21281C7.57075 2.16594 7.964 2.15188 10.0141 2.14953V2.15234ZM16.8726 4.02031C16.1439 4.02031 15.5526 4.6243 15.5526 5.36984C15.5526 6.11516 16.1439 6.71984 16.8726 6.71984C17.6014 6.71984 18.1926 6.11516 18.1926 5.36984C18.1926 4.62453 17.6014 4.01984 16.8726 4.01984V4.02031ZM11.0009 5.59766C7.88127 5.59766 5.35196 8.18445 5.35196 11.375C5.35196 14.5655 7.88127 17.1512 11.0009 17.1512C14.1206 17.1512 16.649 14.5655 16.649 11.375C16.649 8.18445 14.1203 5.59766 11.0007 5.59766H11.0009ZM11.0009 7.625C13.0258 7.625 14.6676 9.30383 14.6676 11.375C14.6676 13.4459 13.0258 15.125 11.0009 15.125C8.97577 15.125 7.33425 13.4459 7.33425 11.375C7.33425 9.30383 8.97577 7.625 11.0009 7.625Z" fill="#E91D24"/>
</svg>
