<svg width="36" height="36" viewBox="0 0 36 36" fill="none" xmlns="http://www.w3.org/2000/svg">
<path d="M16.4667 3.77186C16.8401 2.62276 18.4658 2.62276 18.8392 3.77187L21.2933 11.3249C21.4603 11.8388 21.9391 12.1867 22.4795 12.1867H30.4212C31.6294 12.1867 32.1318 13.7328 31.1543 14.443L24.7293 19.111C24.2922 19.4287 24.1093 19.9916 24.2762 20.5055L26.7304 28.0585C27.1037 29.2076 25.7885 30.1632 24.811 29.453L18.3861 24.785C17.9489 24.4674 17.357 24.4674 16.9198 24.785L10.4948 29.453C9.51735 30.1632 8.20215 29.2076 8.57552 28.0585L11.0296 20.5055C11.1966 19.9916 11.0137 19.4287 10.5766 19.111L4.15157 14.443C3.17408 13.7328 3.67644 12.1867 4.88468 12.1867H12.8264C13.3667 12.1867 13.8456 11.8388 14.0126 11.3249L16.4667 3.77186Z" fill="#F7871B"/>
</svg>
