<svg width="36" height="36" viewBox="0 0 36 36" fill="none" xmlns="http://www.w3.org/2000/svg">
<path d="M16.3906 3.77186C16.7639 2.62276 18.3896 2.62276 18.763 3.77187L21.2171 11.3249C21.3841 11.8388 21.863 12.1867 22.4033 12.1867H30.345C31.5533 12.1867 32.0556 13.7328 31.0782 14.443L24.6532 19.111C24.216 19.4287 24.0331 19.9916 24.2001 20.5055L26.6542 28.0585C27.0276 29.2076 25.7124 30.1632 24.7349 29.453L18.3099 24.785C17.8727 24.4674 17.2808 24.4674 16.8437 24.785L10.4187 29.453C9.44118 30.1632 8.12598 29.2076 8.49935 28.0585L10.9535 20.5055C11.1204 19.9916 10.9375 19.4287 10.5004 19.111L4.07539 14.443C3.0979 13.7328 3.60027 12.1867 4.80851 12.1867H12.7502C13.2906 12.1867 13.7695 11.8388 13.9364 11.3249L16.3906 3.77186Z" fill="#F7871B"/>
</svg>
