<svg width="35" height="36" viewBox="0 0 35 36" fill="none" xmlns="http://www.w3.org/2000/svg">
<path d="M16.3144 3.77186C16.6878 2.62276 18.3134 2.62276 18.6868 3.77187L21.1409 11.3249C21.3079 11.8388 21.7868 12.1867 22.3271 12.1867H30.2689C31.4771 12.1867 31.9795 13.7328 31.002 14.443L24.577 19.111C24.1398 19.4287 23.9569 19.9916 24.1239 20.5055L26.578 28.0585C26.9514 29.2076 25.6362 30.1632 24.6587 29.453L18.2337 24.785C17.7966 24.4674 17.2046 24.4674 16.7675 24.785L10.3425 29.453C9.36501 30.1632 8.04981 29.2076 8.42317 28.0585L10.8773 20.5055C11.0443 19.9916 10.8614 19.4287 10.4242 19.111L3.99922 14.443C3.02173 13.7328 3.5241 12.1867 4.73234 12.1867H12.6741C13.2144 12.1867 13.6933 11.8388 13.8603 11.3249L16.3144 3.77186Z" fill="#F7871B"/>
</svg>
