<svg width="36" height="36" viewBox="0 0 36 36" fill="none" xmlns="http://www.w3.org/2000/svg">
<path d="M17.2363 3.77186C17.6096 2.62276 19.2353 2.62276 19.6087 3.77187L22.0628 11.3249C22.2298 11.8388 22.7087 12.1867 23.249 12.1867H31.1907C32.399 12.1867 32.9013 13.7328 31.9239 14.443L25.4989 19.111C25.0617 19.4287 24.8788 19.9916 25.0458 20.5055L27.4999 28.0585C27.8733 29.2076 26.5581 30.1632 25.5806 29.453L19.1556 24.785C18.7184 24.4674 18.1265 24.4674 17.6894 24.785L11.2644 29.453C10.2869 30.1632 8.97168 29.2076 9.34505 28.0585L11.7992 20.5055C11.9662 19.9916 11.7832 19.4287 11.3461 19.111L4.9211 14.443C3.94361 13.7328 4.44597 12.1867 5.65421 12.1867H13.5959C14.1363 12.1867 14.6152 11.8388 14.7821 11.3249L17.2363 3.77186Z" fill="#F7871B"/>
</svg>
