<svg width="36" height="36" viewBox="0 0 36 36" fill="none" xmlns="http://www.w3.org/2000/svg">
<path d="M17.1601 3.77186C17.5335 2.62276 19.1591 2.62276 19.5325 3.77187L21.9866 11.3249C22.1536 11.8388 22.6325 12.1867 23.1728 12.1867H31.1146C32.3228 12.1867 32.8252 13.7328 31.8477 14.443L25.4227 19.111C24.9855 19.4287 24.8026 19.9916 24.9696 20.5055L27.4237 28.0585C27.7971 29.2076 26.4819 30.1632 25.5044 29.453L19.0794 24.785C18.6423 24.4674 18.0503 24.4674 17.6132 24.785L11.1882 29.453C10.2107 30.1632 8.89551 29.2076 9.26888 28.0585L11.723 20.5055C11.89 19.9916 11.7071 19.4287 11.2699 19.111L4.84492 14.443C3.86744 13.7328 4.3698 12.1867 5.57804 12.1867H13.5198C14.0601 12.1867 14.539 11.8388 14.706 11.3249L17.1601 3.77186Z" fill="#F7871B"/>
</svg>
