<svg width="16" height="14" viewBox="0 0 16 14" fill="none" xmlns="http://www.w3.org/2000/svg">
<path fill-rule="evenodd" clip-rule="evenodd" d="M0 12.7778C0 12.3789 0.325611 12.0556 0.727273 12.0556H15.2727C15.6744 12.0556 16 12.3789 16 12.7778C16 13.1767 15.6744 13.5 15.2727 13.5H0.727273C0.325611 13.5 0 13.1767 0 12.7778Z" fill="#F3F3F3"/>
<path fill-rule="evenodd" clip-rule="evenodd" d="M0 7C0 6.60113 0.325611 6.27778 0.727273 6.27778H15.2727C15.6744 6.27778 16 6.60113 16 7C16 7.39887 15.6744 7.72222 15.2727 7.72222H0.727273C0.325611 7.72222 0 7.39887 0 7Z" fill="#F3F3F3"/>
<path fill-rule="evenodd" clip-rule="evenodd" d="M0 1.22222C0 0.82335 0.325611 0.5 0.727273 0.5H15.2727C15.6744 0.5 16 0.82335 16 1.22222C16 1.62109 15.6744 1.94444 15.2727 1.94444H0.727273C0.325611 1.94444 0 1.62109 0 1.22222Z" fill="#F3F3F3"/>
</svg>
